<svg width="32" height="32" viewBox="0 0 40 40" xmlns="http://www.w3.org/2000/svg">
  <!-- Simple, explicit fills to ensure reliable favicon rendering -->
  <!-- Background -->
  <rect x="2" y="2" width="36" height="36" rx="8" fill="#1F2937" />
  <!-- Foreground container -->
  <rect x="3" y="3" width="34" height="34" rx="7" fill="#111827" opacity="0.35" />
  <!-- Boxes stack -->
  <rect x="11" y="13" width="9" height="7" rx="2" fill="#E5E7EB" opacity="0.35" />
  <rect x="13" y="15" width="9" height="7" rx="2" fill="#E5E7EB" opacity="0.6" />
  <rect x="15" y="17" width="9" height="7" rx="2" fill="#E5E7EB" />
  <!-- Details -->
  <rect x="17" y="19" width="5" height="1" rx="0.5" fill="#60A5FA" opacity="0.9" />
  <rect x="17" y="21" width="3" height="1" rx="0.5" fill="#60A5FA" opacity="0.9" />
  <rect x="17" y="23" width="4" height="1" rx="0.5" fill="#60A5FA" opacity="0.9" />
  <!-- Accent grid dot -->
  <circle cx="28" cy="12" r="2.5" fill="#93C5FD" opacity="0.25" />
  <rect x="26.7" y="10.7" width="0.9" height="0.9" rx="0.2" fill="#F3F4F6" />
  <rect x="28.0" y="10.7" width="0.9" height="0.9" rx="0.2" fill="#F3F4F6" />
  <rect x="29.3" y="10.7" width="0.9" height="0.9" rx="0.2" fill="#F3F4F6" />
  <rect x="26.7" y="12.0" width="0.9" height="0.9" rx="0.2" fill="#F3F4F6" />
  <rect x="28.0" y="12.0" width="0.9" height="0.9" rx="0.2" fill="#F3F4F6" />
  <rect x="29.3" y="12.0" width="0.9" height="0.9" rx="0.2" fill="#F3F4F6" />
  <rect x="26.7" y="13.3" width="0.9" height="0.9" rx="0.2" fill="#F3F4F6" />
  <rect x="28.0" y="13.3" width="0.9" height="0.9" rx="0.2" fill="#F3F4F6" />
  <rect x="29.3" y="13.3" width="0.9" height="0.9" rx="0.2" fill="#F3F4F6" />
</svg>
